<svg id="contactame" data-name="contactame" xmlns="http://www.w3.org/2000/svg" viewBox="0 0 117.89 122" role="img">
<title>Contáctame</title>
  <defs>
    <style>
      .contact{
        fill:#312782;
        }
    </style>
  </defs>

  <g id="contactame-full" data-name="contactame full">
    <path class="contact contact-text" d="M8.76 44.97c-3.38-1.53-4.95-5.31-3.36-8.81.39-.86 1-1.66 1.55-2.12l1.83.83c-.71.49-1.27 1.11-1.7 2.05-1.11 2.44-.06 5.09 2.5 6.25 2.54 1.15 5.22.2 6.33-2.24.43-.94.52-1.77.42-2.63l1.83.83c.02.72-.18 1.7-.57 2.56-1.59 3.5-5.47 4.8-8.83 3.27ZM14.36 33.17c-2.82-2.42-3.28-6.49-.77-9.4 2.5-2.92 6.59-3.09 9.41-.67 2.81 2.41 3.26 6.47.76 9.39-2.5 2.92-6.59 3.09-9.4.68Zm1.29-1.51c2.12 1.82 4.96 1.65 6.71-.38 1.74-2.03 1.47-4.87-.64-6.69-2.13-1.83-4.98-1.66-6.72.37-1.74 2.03-1.47 4.87.66 6.7ZM22.86 15.06l1.47-.93 9.83 3.17-4.23-6.71 1.5-.95 7.03 11.13-12.52-4.18 5.34 8.46-1.5.95-6.91-10.94ZM40.1 8.07l-3.04.98-.54-1.67 7.88-2.55.54 1.67-3.04.99 3.45 10.64-1.79.58-3.45-10.64ZM56.02 13.46l-4.74.49-.81 2.83-1.99.2 4.1-13.66 6.78 12.55-1.99.2-1.36-2.61ZM52.91.18l1.8-.18-1.92 2.61-1.38.14 1.5-2.57Zm-1.15 12.03 3.4-.35-2.13-4.17-1.27 4.51ZM61.09 9.57c.51-3.68 3.68-6.27 7.49-5.75.93.13 1.87.48 2.47.88l-.27 2c-.67-.54-1.42-.9-2.45-1.05-2.66-.36-4.89 1.4-5.28 4.18-.38 2.76 1.3 5.07 3.96 5.43 1.02.14 1.85 0 2.64-.35l-.27 2c-.68.22-1.68.31-2.62.18-3.81-.52-6.17-3.87-5.67-7.53ZM78.31 8.45l-2.99-1.14.63-1.64 7.74 2.95-.63 1.64-2.99-1.14-3.99 10.45-1.76-.67 3.99-10.45ZM87.33 22.63l-4-2.6-2.4 1.7-1.67-1.09 11.76-8.08-2.58 14.03-1.67-1.09.57-2.89Zm-2.53-3.65 2.87 1.86.95-4.58-3.82 2.72ZM96.93 30.09l9.92-2.68-8.53 10.35-1.26-1.5 4.8-5.7-8.08 2.17 3.53-7.58-6.44 3.74-1.26-1.5 11.66-6.61-4.35 9.3ZM111.2 34.99l2.95 6.53-1.63.74-2.18-4.82-3.21 1.45 2.1 4.66-1.58.72-2.11-4.66-3.67 1.66 2.22 4.92-1.68.76-3-6.63L111.2 35ZM5.47 67.57c3.65-.69 7.11 1.5 7.82 5.28.17.93.14 1.93-.05 2.62l-1.98.37c.3-.81.41-1.64.21-2.65-.5-2.63-2.88-4.2-5.64-3.68-2.74.52-4.39 2.84-3.9 5.47.19 1.02.59 1.75 1.16 2.39l-1.98.37c-.43-.58-.83-1.5-1-2.43-.71-3.78 1.72-7.07 5.35-7.76ZM7.96 79.94c3.33-1.64 7.25-.46 8.95 2.99 1.7 3.45.24 7.27-3.09 8.91-3.32 1.63-7.23.45-8.93-3-1.7-3.45-.24-7.27 3.08-8.9Zm.87 1.78c-2.5 1.23-3.47 3.91-2.29 6.31s3.89 3.27 6.4 2.04c2.52-1.24 3.49-3.92 2.31-6.32-1.18-2.4-3.89-3.27-6.42-2.03ZM20.9 90.43l1.18 1.27-1.32 10.24 5.81-5.39 1.2 1.3-9.65 8.94 1.82-13.07-7.33 6.79-1.21-1.3 9.49-8.79ZM31.09 102.31l-2.67-1.77.97-1.46 6.9 4.57-.97 1.46-2.66-1.76-6.17 9.32-1.57-1.04 6.18-9.32ZM39.58 116.11l-4.42-1.79-2.04 2.13-1.85-.75 10.01-10.16.13 14.26-1.85-.75v-2.94Zm-3.18-3.1 3.17 1.28.06-4.68-3.23 3.4ZM45.85 114.3c.56-3.67 3.77-6.21 7.57-5.63.93.14 1.87.51 2.46.92l-.3 1.99c-.66-.55-1.41-.93-2.43-1.08-2.65-.4-4.91 1.33-5.33 4.1-.42 2.76 1.22 5.08 3.87 5.49 1.02.16 1.85.02 2.64-.31l-.3 1.99c-.69.21-1.69.28-2.62.14-3.8-.58-6.1-3.96-5.55-7.61ZM61.01 110.84l-3.19.22-.12-1.75 8.26-.57.12 1.75-3.19.22.78 11.16-1.88.13-.78-11.16ZM68.16 108.28l6.9-1.95.49 1.73-5.09 1.44.96 3.4 4.93-1.39.47 1.67-4.93 1.39 1.1 3.88 5.19-1.47.5 1.78-7.01 1.98-3.52-12.45ZM82.77 117.16l-.58-12.27-3.99 2.1-.85-1.6 6.65-3.51.53 12.26 4.63-2.44.86 1.63-7.26 3.83ZM89.16 105.01l3.85-3.05.96 1.22-3.86 3.05-.96-1.22ZM102.57 96.84l-4.68-9.14 11.89 6.19-1.21 1.54-6.57-3.51 3.8 7.45-8.14-1.88 5 5.52-1.21 1.54-8.88-10.03 10 2.33ZM106.37 86.89c-3.49-1.28-5.34-4.93-4.01-8.54 1.32-3.61 5.09-5.2 8.58-3.92 3.47 1.27 5.32 4.92 4 8.53-1.32 3.61-5.09 5.2-8.56 3.92Zm.68-1.85c2.62.96 5.23-.19 6.15-2.71.92-2.52-.32-5.08-2.94-6.04-2.64-.97-5.24.18-6.16 2.7-.92 2.51.32 5.08 2.96 6.04ZM104.82 69.83l.26-1.87 12.81 1.79-.26 1.87-12.81-1.8Z">
    <animateTransform
      attributeName="transform"
        type="rotate"
        from="0 58.945 61"
        to="360 58.945 61"
        dur="8s"
        repeatCount="indefinite" />
      </path>
    <path class="contact" d="M73.66 92.26H46.8l3.23-2.19c.08-.05.14-.13.18-.22L72.27 38c.37-.86.38-1.81.03-2.68a3.455 3.455 0 0 0-1.88-1.91c-1.78-.76-3.84.07-4.59 1.85L43.77 87.11c-.04.09-.05.19-.03.28l.94 5.46s.01.03.02.04c.01.05.04.1.06.14.01.02.02.04.04.05.09.11.22.18.37.18h28.48c.28 0 .5-.22.5-.5s-.22-.5-.5-.5Zm-28.12-.34-.78-4.55.15-.36c.22-.51.8-.74 1.31-.53s.75.8.53 1.31c-.03.06-.04.13-.04.2a.5.5 0 0 0 .96.2c.1-.25.3-.44.55-.54a1 1 0 0 1 .76 0c.25.1.44.3.54.55a1 1 0 0 1 0 .76l-.15.36-3.82 2.59Zm22.96-47.6L50.18 87.38c-.21-.28-.48-.51-.81-.65-.49-.21-1.04-.22-1.53-.01-.04.02-.08.03-.12.05a1.98 1.98 0 0 0-1.11-1.21c-.34-.14-.69-.18-1.03-.14L63.9 42.36l4.6 1.96Zm-4.21-2.88.67-1.56 4.6 1.96-.66 1.56-4.6-1.96Zm2.46-5.78a2.501 2.501 0 0 1 4.6 1.96l-1.41 3.31-4.6-1.96 1.41-3.31Z" />
  </g>
</svg>