<?xml version="1.0" encoding="UTF-8"?>
<svg id="hand-svg" data-name="Capa 2" xmlns="http://www.w3.org/2000/svg" viewBox="0 0 24.5 59.86">
  <defs>
    <style>
      .cls-1 {
        fill: #fff;
      }
    </style>
  </defs>
  <g id="hand">
    <g>
      <path class="cls-1" d="M9.09,14.7s-.05-.04-.07,0c-.02.03,0,.07.02.09.03.02.06.02.07,0s0-.05-.02-.09Z"/>
      <path class="cls-1" d="M13.94,14.13c.37-.02.56-.17.61-.47.02-.12.03-.25,0-.28-.06-.1-.25-.09-.42.03-.1.06-.27.1-.4.08-.13-.02-.29,0-.35.05-.18.13-.24.25-.19.41.05.15.27.3.37.24.04-.02.2-.05.37-.06Z"/>
      <path class="cls-1" d="M17.05,59.6c.03-.06.18-.2.33-.31.42-.31.7-.89.99-2.01.13-.5.25-1.03.28-1.2.03-.16.09-.37.13-.45s.08-.23.07-.33c0-.09.02-.27.06-.38.04-.12.06-.27.04-.35-.02-.07,0-.18.03-.25.08-.14.14-.53.09-.56-.02-.01.01-.12.07-.24.06-.12.18-.62.26-1.12.08-.5.18-.97.22-1.05.03-.08.11-.35.16-.61.05-.25.13-.58.19-.72.05-.15.06-.28.02-.3-.05-.03-.03-.11.03-.22.17-.29.32-.88.43-1.61.05-.37.14-.8.19-.95.05-.15.09-.32.08-.38-.01-.06.02-.22.07-.37.05-.15.08-.4.06-.55-.02-.16.02-.44.08-.64.09-.3.29-1.26.34-1.65,0-.06.05-.25.1-.42.13-.5.18-.73.3-1.46.06-.38.15-.76.2-.85.05-.09.08-.2.05-.23-.02-.04,0-.12.03-.19.04-.07.06-.2.05-.29-.01-.09,0-.19.02-.21.02-.02.04-.09.05-.14.02-.18.11-.48.19-.66.08-.17.28-.91.31-1.11,0-.06.04-.18.08-.28.3-.77.64-2.1.56-2.15-.03-.02,0-.08.06-.15.09-.09.12-.37.15-1.17.02-.58.03-1.16,0-1.29-.02-.13-.02-.3,0-.38.02-.08-.01-.18-.07-.23-.05-.05-.07-.14-.03-.2.03-.06.04-.32.02-.58-.02-.26,0-.57.04-.7.08-.23.08-.32-.04-1.01-.03-.18-.06-.44-.05-.56.01-.34-.09-1.44-.14-1.58-.03-.07-.03-.16,0-.2.06-.11-.02-1.17-.1-1.49-.04-.14-.06-.37-.06-.52,0-.15,0-.29-.03-.3-.02-.01-.06-.31-.09-.65-.02-.34-.07-.74-.1-.88-.03-.14-.06-.52-.06-.84,0-.75,0-.71-.1-1.47-.05-.35-.1-.9-.12-1.22-.04-.7-.08-1.32-.11-1.39-.04-.1-.09-.84-.09-1.14,0-.18-.02-.39-.04-.46-.03-.07-.06-.28-.08-.45-.02-.17-.07-.42-.11-.55-.05-.13-.09-.38-.1-.56-.01-.18-.06-.5-.1-.72-.07-.34-.06-.43.06-.62.45-.74.62-1.1.74-1.58.07-.28.16-.61.2-.73.04-.12.07-.23.06-.25,0-.02.11-.09.26-.15.35-.15.4-.2.73-.71.23-.36.28-.47.28-.7,0-.15.03-.35.06-.46.06-.24.18-2.67.14-3.03-.01-.15,0-.41.03-.57.03-.16.07-.37.07-.47.01-.19-.1-.56-.18-.62-.13-.08-1.27-.67-1.48-.76-.41-.18-1.11-.57-1.15-.63-.03-.06-.41-.18-.96-.29-.29-.06-.32-.08-.4-.26-.08-.17-.16-.23-.53-.4-.49-.23-1.13-.43-1.51-.47-.14-.01-.25-.04-.24-.06.01-.02-.06-.02-.15,0-.09.02-.19.07-.21.12-.02.04-.08.05-.13.03-.05-.03-.07-.07-.05-.1.04-.07-.25-.23-.46-.26-.09-.01-.29-.05-.45-.09-.43-.1-.81-.15-1.02-.14-.21.02-.92-.08-1.32-.19-.14-.04-.43-.07-.65-.07-.22,0-.44-.03-.49-.06-.14-.08-.39.07-.52.31-.12.23-.21.26-.28.13-.04-.06-.01-.09.1-.13.14-.04.15-.05.1-.22-.05-.16-.08-.18-.35-.25-.24-.06-.32-.11-.4-.22-.17-.26-1.22-.56-1.38-.39-.05.05-.14.07-.19.04-.12-.07-1.14-.2-1.32-.17-.18.03-.49-.03-.79-.15-.28-.12-1.36-.17-1.61-.09-.08.03-.19.03-.24,0-.05-.03-.15-.03-.22,0-.07.03-.24.05-.38.04-.14,0-.31.01-.38.04-.07.03-.27.04-.45.03-.33-.02-1.37.06-1.61.12-.07.02-.21.08-.33.14-.11.06-.48.11-.8.12-.62.02-.81.09-1.53.6h0c-.21.15-.37.31-.41.4-.03.08-.07.19-.09.23-.02.04,0,.21.04.39.04.19.04.41,0,.54-.05.13-.07.33-.05.46.01.13.02.45.02.72-.04,1.71-.04,2.14,0,2.76,0,.12,0,.31,0,.4,0,.18.04.61.1.87.02.08.04.24.06.36.05.33.21.8.31.9.05.05.12.17.15.26.03.09.13.21.22.27.09.06.17.18.18.25.02.13.08.17.53.37.28.12.57.22.66.22.08,0,.32.02.53.07q.38.08.57.36c.11.15.24.37.29.47.13.26.78.7,1.14.77.15.03.34.08.42.13.09.05.21.09.28.09.42.01,1.37.08,1.42.11.08.04.05.38-.05.74-.11.38-.32,1.01-.39,1.18-.03.07-.05.16-.04.21,0,.05-.07.26-.17.47-.1.21-.18.45-.18.53,0,.08-.03.16-.05.18-.03.02-.08.17-.12.35-.04.17-.11.4-.16.49-.11.23-.4.99-.42,1.13-.02.12-.03.18-.11.41-.03.1-.1.33-.15.5-.05.17-.15.48-.23.68-.19.5-.54,1.89-.7,2.79-.03.16-.1.52-.15.8-.14.72-.16.94-.13,1.28.01.17,0,.69-.02,1.15-.02.47-.03,1.12-.02,1.46.03.75-.03.99-.25.99-.27,0-.48.2-.76.71-.25.47-.26.48-.19.87.04.22.12.47.17.55.07.11.08.17,0,.19-.05.02-.26.34-.47.7-.48.86-.51,1.11-.24,2.13.05.2.11.45.13.55.02.11.13.43.26.72.49,1.12.58,1.41.49,1.67-.03.08-.07.21-.09.3-.06.21-.37.34-.63.26-.42-.13-1.03.27-1.38.92-.12.22-.2.45-.21.58,0,.12-.02.22-.05.22-.02,0-.05.09-.07.19-.02.14,0,.18.12.21.13.03.13.04.02.09-.14.06-.15.14-.05.57.05.22.12.33.24.39.1.05.16.14.17.21,0,.07.13.31.28.53.25.38.27.43.2.66-.04.14-.08.3-.08.37,0,.06-.07.33-.15.6-.2.65-.39,1.44-.39,1.59,0,.07-.03.18-.06.24-.03.06-.07.2-.07.31,0,.11-.06.33-.12.49-.06.16-.12.38-.13.48-.01.1-.03.21-.04.25-.06.21.02.8.14,1.03.11.21.24.33.68.63.41.27.59.37.75.39.25.03.91,0,1.07-.04.24-.07.76-.32,1.04-.52.16-.11.43-.29.6-.4.51-.33.89-.75,1.31-1.44.21-.35.47-.67.6-.72.06-.03.37.05.72.17.34.12.66.2.71.19.06-.01.12,0,.14.04.02.04.07.05.1.03.09-.05.92,0,1.14.08.11.04.4.08.65.09.31.02.54.07.72.17.15.08.36.15.48.15.48.01.62.03,1.02.13.23.06.52.09.64.06.12-.02.31-.04.43-.04.29,0,.98-.3,1.07-.47.04-.07.15-.2.25-.27.1-.08.22-.18.28-.23.09-.08.1-.07.14.15.03.14,0,.36-.06.53-.06.16-.09.33-.07.39.02.06.03.13.01.16-.04.07-.19,1.28-.17,1.39,0,.04-.04.41-.1.82-.06.41-.12,1-.13,1.32,0,.32-.03.61-.05.65-.08.14-.05,1.24.03,1.32.05.04.06.13.02.19-.03.06-.04.23-.02.38.04.29-.07.84-.23,1.15-.13.24-.17.46-.28,1.39-.05.4-.1.79-.12.88-.02.09-.03.2-.03.24,0,.04-.02.29-.07.54-.04.25-.05.49-.02.53.03.04.02.14-.03.23-.12.22-.13.69-.02.89.05.09.15.21.23.28.08.06.15.14.15.17.01.11.3.74.45.98.21.34.83.75,1.16.76.13,0,.29.04.37.08.16.09.8-.09.88-.24ZM9.87,1.15c.06.03.08.09.06.14-.03.05-.09.06-.15.03s-.08-.09-.06-.14c.03-.05.09-.06.15-.03ZM10.22.72s-.05.04-.12.02c-.08-.02-.17,0-.21.03-.04.03-.1.05-.13.03h0s-.04-.06-.03-.09c.04-.07.47-.06.49,0ZM7.54.57c.05.09-.17.24-.28.18-.05-.02-.06-.08-.04-.12.06-.1.27-.14.32-.06ZM3.87.92c-.12-.01-.21-.04-.2-.07.04-.07.42-.15.5-.11.13.07-.08.2-.3.18ZM5.33.94c-.08-.04-.21-.08-.29-.08-.2,0-.2-.05,0-.15.09-.04.16-.12.17-.18.02-.16.12-.18.2-.05.06.1.1.12.23.09.09-.02.19-.02.23,0,.04.02.2,0,.36-.06.39-.13.52-.03.37.28-.06.13-.12.28-.12.34,0,.06-.06.12-.14.14-.07.01-.14.04-.15.07-.06.1-.63.23-.72.16-.05-.04-.11-.09-.13-.1-.02-.02,0-.1.05-.2.08-.14.07-.18-.05-.25ZM1.84,1.62c-.07-.09-.05-.16.07-.27.08-.07.33.06.34.17,0,.12-.32.2-.41.09ZM6.91,1.6s.02-.08,0-.07c-.03,0-.11-.06-.17-.16-.12-.18-.11-.31.02-.24.04.02.16,0,.27-.04.27-.12.35-.03.3.32-.05.32-.05.32-.23.35-.2.03-.26-.03-.19-.17ZM15.54,1.78c.12.1.08.22-.07.19-.1-.02-.12-.06-.07-.14.04-.07.09-.09.14-.04ZM11.17,2.01c-.17-.09-.13-.19.05-.15.07.01.15,0,.17-.04.02-.04.04,0,.04.06,0,.17-.09.22-.26.13ZM12.06,2.06s-.04-.06-.03-.09c.02-.03.06-.04.09-.03.03.02.04.06.03.09-.02.03-.06.04-.09.03ZM19.49,5.02c-.11.02-.22.02-.24.01-.07-.04,0-.12.17-.19.12-.05.18-.04.22.04.05.09.02.11-.15.14ZM21.05,4.8c.02.07-.14.19-.21.15-.03-.02-.04-.07-.01-.11.05-.09.2-.12.22-.04ZM21.1,4.22s-.08.05-.13.04c-.05,0-.15-.05-.21-.1q-.11-.08.04-.09c.18,0,.33.06.29.14ZM18.98,3.28s-.04-.05-.03-.08c.04-.08.26-.1.32-.03.04.04.02.05-.04.02-.06-.03-.12-.01-.15.04-.03.05-.07.07-.1.05ZM19.59,3.11s.04.06.02.09c-.02.03-.05.03-.07,0-.02-.04-.03-.08-.02-.09,0-.01.04-.01.07,0ZM17.88,2.75c.06.03.15.07.21.07.07,0,.08.04.04.09-.09.12-.38.2-.45.12-.1-.12.06-.35.19-.28ZM14.62,2.36h0c-.08-.04-.07-.08.05-.17.07-.06.3.03.26.11-.04.07-.23.11-.31.07ZM16.12,2.51s-.13.02-.18-.02c-.08-.07-.08-.08.04-.1.16-.03.26.06.13.12ZM1.29,2.58c-.08-.17.02-.21.18-.07.19.16.2.19.1.28-.08.07-.2-.02-.28-.21ZM16.43,3.12c-.04-.07-.02-.08.06-.03.08.04.1.04.07-.03-.04-.07,0-.12.17-.25.31-.23.46-.24.44-.04-.03.22-.28.45-.49.44h0c-.12,0-.22-.04-.25-.1ZM17.72,3.4s-.06-.08-.04-.13c.03-.05.08-.06.13-.04.05.03.06.08.04.13-.03.05-.08.06-.13.04ZM17.52,3.69c.03-.05.07-.07.1-.04.03.03.04.08.02.11-.02.03-.06.05-.1.04-.04,0-.05-.05-.02-.11ZM17.91,4.16s-.04-.05-.02-.08c.04-.07.18-.08.2-.02.02.06-.11.13-.18.1ZM19.48,3.85s-.25-.04-.5-.06c-.41-.03-.45-.04-.47-.16-.02-.12-.02-.12-.07-.04-.06.1-.11.09-.23-.04h0s-.06-.1-.05-.13c.05-.08.27-.09.33-.01.04.04.08.05.1.02.02-.03,0-.07-.04-.09-.11-.06.05-.07.38-.03.18.02.38.08.45.11.07.04.14.04.16.01.02-.03.09-.02.17.02.08.04.13.1.11.13-.02.03.03.09.11.13.19.1.18.21-.02.23-.14.02-.16.04-.15.18.01.19.07.23.18.14.1-.09.25,0,.27.16.02.13.03.13.22.12.24-.02.31.01.29.15-.02.15-.47.1-.58-.06-.06-.1-.1-.1-.21-.04-.07.04-.16.06-.2.04-.04-.02-.09,0-.11.03-.02.04-.04.04-.05.01,0-.03-.13-.07-.26-.08-.3-.03-.33-.12-.12-.33.27-.27.36-.39.3-.42ZM18.38,4.71s-.08-.05-.07-.06c.15-.14.28-.13.2.02-.03.05-.08.06-.13.04ZM18.54,4.36s-.05-.06-.06-.1c0-.04.04-.05.08-.03.05.03.07.07.06.1-.02.03-.05.04-.08.03ZM6.04,4.53s-.04-.06-.02-.09c.02-.03.05-.03.07,0,.02.04.03.08.02.09,0,.01-.04.01-.07,0ZM7.01,4.55s-.07-.07-.05-.1c.04-.07.23-.05.26.02.02.08-.12.13-.21.08ZM6.8,4.81s-.07-.09-.06-.14c.02-.13.21-.12.25.01.03.11-.09.19-.19.13ZM7.39,5.15c-.19-.16-.17-.28.05-.36.22-.07.26-.05.35.2.07.2.07.21-.09.24-.11.02-.21,0-.31-.09ZM20.24,5.72c-.09-.05-.08-.13.02-.16.1-.03.15.03.11.12-.03.05-.08.06-.13.04ZM21.85,6.38c-.1-.05,0-.26.11-.27.12,0,.15.16.05.25-.05.04-.12.05-.17.02ZM10.59,7.78c.02.06-.11.13-.18.1-.03-.02-.04-.05-.02-.08.04-.07.18-.08.2-.02ZM3.95,8.1s-.03-.08-.02-.09c0-.01.04-.01.07,0,.03.02.04.06.02.09-.02.03-.05.03-.07,0ZM4.86,8.08c-.05-.05-.09-.13-.09-.18,0-.05,0-.1.02-.13.04-.08.13.06.15.24.01.16,0,.16-.07.07ZM5.56,8.84s-.14-.08-.22-.08c-.11,0-.16-.03-.25-.21-.06-.12-.09-.25-.07-.28.05-.09.36.17.5.43.07.13.09.19.04.14ZM6.1,9.05c-.08-.02-.2-.05-.26-.05-.06,0-.09-.04-.08-.07.04-.08.31-.08.39,0,.06.07.44-.04.49-.13.02-.03.04-.04.05,0,.03.1-.43.31-.59.27ZM8.55,8.96s.02-.04-.09-.04c-.18,0-.24-.07-.08-.09.23-.03.48,0,.52.07.06.11-.03.22-.15.21-.17-.02-.28-.1-.2-.15ZM2.4,9.64h0c-.16-.06-.16-.08-.07-.28.1-.22.1-.22.27-.08.09.07.18.17.19.21.01.04.07.08.12.08.05,0,.08.04.06.07-.02.03-.08.04-.14,0-.06-.03-.14-.03-.18,0-.04.03-.15.03-.24,0ZM8.48,9.41c-.05-.1,0-.18.1-.13.04.02.1.03.13,0,.07-.06.28.03.27.11-.01.09-.45.11-.5.02ZM6.53,9.51s-.07.07-.1.06c-.03-.02-.1-.03-.16-.04-.13-.02-.1-.1.05-.15.14-.04.26.03.2.13ZM3.8,10.03c-.05-.03-.06-.1,0-.19.06-.1.05-.16-.04-.2-.06-.03-.1-.09-.08-.12.03-.05.25.1.33.23.06.09-.12.32-.2.27ZM5.43,10.01c.07,0,.08.04.05.07-.03.03-.09.05-.14.04-.12-.02-.03-.13.09-.11ZM4.43,10.24c-.09-.03-.16-.06-.16-.06.02-.04.59-.16.64-.13.2.11-.22.27-.48.19ZM4.63,10.7c-.11-.06.04-.15.41-.26.35-.1.61-.1.44,0-.04.02-.02.06.03.09.05.03.06.07.02.09-.04.02-.08.02-.08,0,0-.03-.18,0-.39.04-.21.05-.4.07-.42.06ZM6,10.67s-.05-.12-.09-.16c-.06-.06-.05-.09.05-.17.07-.05.15-.08.17-.07.08.04.37-.04.37-.1,0-.03-.07-.1-.14-.14-.1-.05-.12-.11-.08-.19.05-.09.1-.09.26,0,.11.06.18.13.17.16-.01.03.02.09.07.14.11.1.04.29-.08.23-.12-.06-.64.16-.66.29-.01.07-.03.08-.03.02ZM7.16,11.57s-.04-.06-.03-.09c.02-.03.06-.04.09-.03.03.02.04.06.03.09-.02.03-.06.04-.09.03ZM18.64,11.56c.05-.09.09-.19.08-.22,0-.03.07-.12.17-.2.1-.08.17-.17.15-.19-.01-.03-.21-.07-.44-.09-.22-.03-.57-.08-.77-.13-.34-.07-1.17-.18-1.81-.23-.15-.01-.45-.04-.66-.07-.53-.06-1.31-.11-2.19-.14-.41-.01-.87-.05-1.02-.07-.15-.03-.41-.05-.59-.05-.47,0-1.42,0-1.92-.02-.24,0-.61.02-.84.07-.22.04-.59.07-.81.07-.22,0-.45,0-.52.04-.18.07-.37-.05-.26-.17.07-.07.06-.11-.02-.16-.06-.03-.09-.08-.08-.11.04-.08.13-.02.23.17.08.15.09.15.2.06.06-.06.12-.12.12-.15.01-.05.72-.19.92-.18.08,0,.19-.05.23-.11.09-.12.24-.09.24.04,0,.07.33,0,.37-.08.01-.03.11-.11.22-.18.11-.07.23-.18.28-.24.29-.37.36-.43.46-.41.06.01.39-.07.73-.19.34-.12.64-.19.68-.17.04.02.11,0,.17-.05.12-.12.92-.38,1.01-.33.04.02.04.06,0,.08-.04.02-.04.05,0,.07.03.02.1,0,.15-.02.05-.03.26-.03.47,0,.47.08,1.12.02,1.46-.12.2-.09.31-.09.51,0,.33.13,1.13.26,1.54.25.3,0,.79.12.93.23.04.03.31.1.6.16.3.06.68.18.86.26.18.08.39.15.47.15.08,0,.32.07.53.17.49.21.56.36.43.98-.05.25-.07.58-.04.73.08.44-.09.59-.55.5-.32-.06-.45-.05-.47.06-.02.13-.19.19-.27.1-.04-.05-.04-.14,0-.22.06-.11.04-.15-.1-.22-.22-.12-.54-.02-.54.16,0,.09-.06.18-.18.27-.22.18-.31.14-.18-.08ZM21.63,11.79c.03-.4.2-.68.36-.59.09.05.06.43-.04.48-.04.02-.05.05-.02.07.04.02-.05.22-.17.36-.09.1-.15-.06-.13-.33ZM11.35,12.84s-.04-.05-.02-.09c.02-.03.07-.03.12,0,.05.03.06.06.02.09-.04.02-.09.02-.12,0ZM10.63,13.76c.09-.05.09-.04.05.04-.03.05-.08.09-.11.07-.07-.04-.07-.04.06-.11ZM9.96,14.04c-.12-.07-.11-.12.07-.2.07-.03.14-.02.17.03.06.11-.11.24-.24.17ZM9.37,15.24c-.05.02-.13,0-.17-.05-.05-.06-.06-.04-.01.07.06.13.05.16-.09.25-.17.11-.32.09-.19-.02.05-.04.04-.1-.02-.16-.05-.05-.07-.13-.05-.17.02-.04,0-.12-.04-.17-.07-.09-.07-.09.08-.11.14-.02.14-.03-.03-.12-.1-.05-.17-.12-.15-.15.03-.06.79-.23.85-.2.02.01.06,0,.08-.05.02-.04.11-.1.2-.13.12-.05.2-.03.33.06.21.16.22.28.03.3-.08.01-.15.04-.15.07,0,.03-.11.02-.23,0-.13-.03-.24-.04-.26,0-.01.03,0,.05.04.05.04,0,.07.03.07.07,0,.12.22.21.27.11.03-.05.07-.07.1-.05.08.04.06.07-.2.24l-.23.15.16.11c.12.08.14.13.09.18-.04.04-.09.08-.09.09-.03.06-.21-.1-.25-.23-.04-.11-.08-.14-.15-.12ZM8.8,16.2s-.04-.11-.07-.15c-.04-.05,0-.05.09,0,.12.06.14.1.07.15-.05.04-.09.04-.09,0ZM8.91,16.87c-.09-.03-.15-.09-.14-.14.04-.28.65-.58.65-.32,0,.11-.22.47-.3.5-.03,0-.12,0-.2-.04ZM8.47,17.68s0-.1.04-.2c.05-.13.1-.18.2-.18.2,0,.25.06.18.2-.06.12-.32.24-.41.19ZM7.72,19.35c-.05-.09.06-.26.18-.28.06-.01.13.02.15.07.04.07.02.1-.13.18-.1.05-.19.07-.21.04ZM8.08,19.63c.03-.05.1-.09.16-.08.16.02.14.09-.04.13-.15.04-.16.03-.12-.05ZM6.26,22.31s-.04-.07-.01-.11c.05-.09.2-.12.22-.04.02.07-.14.19-.21.15ZM6.91,22.85c.07-.13,0-.36-.09-.28-.03.03-.04-.02-.02-.12.02-.1,0-.22-.05-.27-.11-.12-.04-.26.12-.24.06.01.15.02.18.02.04,0,.03.02,0,.04-.04.02-.05.06-.02.08.03.02.04.07.01.12-.03.05,0,.1.04.13.05.03.1.01.13-.03.06-.1.2-.12.42-.06.14.04.16.07.12.15-.03.06,0,.16.06.23.1.12.1.14-.02.19-.09.04-.22.02-.39-.07-.24-.12-.26-.12-.32.03-.04.09-.1.16-.14.16-.04,0-.05-.04-.03-.09ZM6.64,23.73c-.06-.11.1-.31.26-.32.2-.01.22.06.04.15-.08.04-.15.05-.16.01,0-.03-.03-.03-.05,0-.02.04,0,.08.02.1.03.02.03.05,0,.07-.04.02-.08.01-.1-.02ZM6.43,24.47h0c-.03-.12.16-.3.26-.24.04.02.09,0,.12-.05.03-.05.01-.1-.03-.13-.1-.06.01-.25.18-.3.17-.05.23.04.14.2-.04.07-.03.18,0,.26.09.15.05.26-.07.2-.04-.02-.12,0-.17.04-.09.09-.41.1-.44,0ZM6.16,25.12c-.02-.07-.01-.09.04-.06.04.02.09,0,.11-.04.06-.11.26-.18.43-.14l.16.03-.19.06c-.1.03-.2.09-.22.11-.02.03-.09.07-.16.09-.1.03-.14.02-.16-.06ZM5.51,27.5c.09-.03.27.09.24.15-.02.03-.05.05-.08.05-.09,0-.23-.18-.16-.2ZM5.68,28.15c-.02-.06,0-.09.06-.09.05,0,.1.03.11.08.02.06,0,.09-.06.09-.05,0-.1-.03-.11-.08ZM4.6,29.14c-.02-.06-.03-.13-.02-.15.01-.02.07-.05.14-.06.09-.02.11,0,.1.08,0,.06-.05.13-.09.17-.06.05-.09.04-.12-.04ZM4.7,29.97s.07-.07.1-.06c.03.02.04.05.03.08-.02.03-.06.05-.1.06-.04,0-.05-.04-.03-.08ZM5.81,32.14c-.09-.05-.08-.13.02-.16.1-.03.15.03.11.12-.03.05-.08.06-.13.04ZM1.74,38.44c-.05-.05-.04-.06.04-.07.1,0,.16.09.07.11-.03,0-.08-.01-.11-.05ZM2.27,46.57c-.25-.05-.31-.51-.11-.87.05-.09.07-.21.04-.28-.04-.09-.02-.13.08-.18.1-.06.14-.18.23-.62h0c.13-.69.35-1.24.5-1.22.24.03.5,1.14.39,1.63-.03.13-.21.52-.4.86-.35.65-.44.72-.73.67ZM13.48,44.5c-.29.12-1.33.22-1.48.14-.04-.02-.15-.03-.23-.02-.08.01-.23-.02-.33-.07-.15-.08-1.08-.24-1.33-.22-.15,0-.55-.08-.82-.17-.15-.06-.45-.1-.66-.11-.34,0-.45-.04-.89-.28-.46-.25-.5-.29-.51-.45-.03-.36.26-.82.69-1.09.13-.09.28-.22.32-.3.04-.08.2-.18.35-.24.15-.05.35-.13.44-.18.09-.05.21-.06.29-.01.15.08.36.09.63.03.1-.02.21,0,.28.06.13.12.31.15.36.05.03-.05.08-.04.14.02.06.06.17.07.3.04.11-.03.22-.02.24.02.02.04.14.07.25.06.16,0,.26.03.41.16.11.09.33.23.5.31.24.12.35.21.53.47.28.41.39.42.71.03.13-.15.34-.34.46-.41.13-.07.25-.17.26-.21.11-.29.37-.18.31.14-.02.1,0,.33.06.51.09.3.08.36-.09.74-.18.4-.2.43-.55.63-.2.12-.49.27-.65.34ZM14.2,41.76s.02.04-.04.06c-.06.02-.11.01-.12-.02-.02-.06.09-.09.16-.05ZM16.21,57.71c-.01-.08,0-.19.02-.23.02-.04-.02-.3-.09-.56-.08-.26-.12-.52-.09-.57.03-.05.04-.22.03-.38,0-.16.02-.32.05-.35.04-.03.06-.12.07-.2,0-.08.06-.28.14-.45.07-.17.12-.35.11-.4-.01-.05.03-.2.11-.34.18-.32.31-.93.26-1.16-.02-.1-.03-.19-.02-.22.01-.02,0-.14-.01-.25-.02-.11,0-.22.02-.24.03-.02.03-.05,0-.06-.03-.02-.06-.16-.07-.31,0-.15-.05-.38-.09-.5-.07-.22.02-.81.16-1.07.04-.06.04-.13,0-.15-.03-.02-.05-.14-.03-.27.03-.28-.02-.38-.21-.46-.1-.04-.12-.07-.07-.1.04-.02.13,0,.2.06.1.08.12.08.13-.01,0-.06.03-.24.06-.39.03-.15,0-.35-.04-.44-.05-.1-.05-.24,0-.4.05-.14.07-.27.05-.31-.02-.03,0-.13.05-.22.05-.1.07-.26.03-.39-.03-.13-.05-.26-.03-.29.04-.09.15-.35.39-.87.24-.52.26-.92.08-1.52-.06-.2-.08-.45-.05-.55.03-.1.04-.31.02-.45-.02-.15-.03-.36-.03-.48.02-.32,0-.72-.05-.91-.02-.1-.03-.2-.01-.23.02-.03.03-.23.03-.45,0-.68.03-1.01.09-1.15.07-.16.05-.53-.02-.66-.03-.05,0-.17.05-.27.15-.29.26-.74.21-.86-.03-.06-.03-.13-.01-.15.02-.02.07-.14.11-.27.05-.17.14-.27.38-.46.49-.37.53-.49.29-1.01-.09-.2-.08-.19-.35-.25-.18-.04-.22-.08-.25-.21-.03-.14-.11-.2-.42-.36-.21-.11-.39-.22-.39-.24,0-.03.09-.15.22-.26.28-.25.29-.34.04-.43-.18-.07-.18-.07-.04-.24l.14-.17-.23-.08c-.13-.04-.34-.05-.49,0l-.25.07.11.13c.22.25-.18.66-.53.55-.11-.03-.19-.03-.19,0,0,.03-.13.1-.29.14-.24.07-.3.06-.37-.04-.06-.09-.1-.1-.16-.05-.1.08-.32-.03-.27-.13.02-.04.08-.08.12-.1.08-.02.19-.16.26-.31.02-.04,0-.15-.03-.25-.07-.21.06-.56.18-.49.05.03.1,0,.13-.09.07-.19.2-.14.22.09,0,.11.04.21.07.23.03.02.07.09.08.17.02.11.05.14.15.13.19,0,.35-.2.39-.47.03-.19,0-.26-.15-.4-.11-.09-.28-.2-.38-.24-.22-.08-.37-.27-.38-.49-.01-.15-.05-.19-.3-.29-.4-.17-.45-.34-.2-.67.1-.13.26-.37.36-.52.1-.15.2-.3.22-.32.08-.09.07-.43,0-.44-.04,0-.1.01-.12.05-.02.03-.14.09-.27.12-.27.07-.31.12-.24.28.07.17-.01.27-.35.46-.17.09-.36.22-.42.29-.16.17-.06.44.22.58.19.1.21.14.2.35,0,.15.03.26.1.3.06.03.11.1.12.16,0,.11-.39.88-.46.9-.03,0-.16.06-.28.13-.18.09-.22.14-.19.2.04.06.02.1-.09.17-.11.07-.13.11-.1.19.06.14,0,.55-.1.6-.09.05-.17.25-.14.39.03.14-.12.25-.25.18-.13-.07-.23,0-.39.3-.13.24-.22.27-.36.13-.08-.08-.02-.48.09-.59.02-.02,0-.05-.03-.07-.03-.02-.03-.06.01-.1.04-.04.04-.09,0-.13-.09-.08.12-.56.39-.88.14-.16.14-.2.05-.43-.06-.14-.15-.28-.21-.31-.11-.06-.4.09-.39.2,0,.09-.21.18-.32.14-.05-.02-.17-.08-.27-.14-.13-.08-.17-.13-.12-.21.07-.14-.01-.37-.21-.56-.13-.13-.22-.16-.46-.17l-.31-.02-.04-.19c-.05-.25.04-.4.36-.67.15-.12.38-.31.52-.42.45-.37.74-1.1.45-1.14-.06,0-.22.11-.37.26-.15.15-.38.39-.53.54-.14.14-.34.38-.44.53-.1.15-.32.45-.5.67-.47.58-1.32,2.14-1.35,2.49-.01.15-.08.38-.13.53-.06.15-.11.32-.11.39,0,.07-.06.22-.13.34-.14.23-.53,1.73-.7,2.65-.06.32-.13.62-.15.67-.02.05,0,.1.04.13.05.03.06.09.03.15-.03.06-.04.14-.03.19.01.05-.03.22-.1.38-.15.36-.47,1.19-.55,1.45-.09.28-1.4,2.67-1.68,3.06-.61.85-.72.95-1.25,1.15-.24.09-.4.06-.34-.07.32-.67.65-1.77.61-2-.01-.06,0-.17.02-.26.05-.24-.03-.65-.17-.91-.07-.12-.16-.33-.21-.46l-.08-.23.55-1c.31-.55.55-1.02.55-1.06,0-.03-.07-.12-.14-.19-.12-.11-.12-.14-.03-.24.06-.06.09-.15.07-.18-.02-.04,0-.08.03-.1.09-.05,0-.35-.12-.42-.14-.07-.1-.34.1-.77.09-.18.16-.37.15-.41,0-.16-.19-.3-.41-.31-.2,0-.21-.02-.24-.19-.02-.11,0-.21.05-.25.05-.04.21-.28.37-.53.46-.76.52-.84.74-1,.12-.09.25-.22.29-.3.04-.08.3-.33.56-.55l.48-.41-.09-.21c-.05-.12-.17-.26-.26-.31-.24-.13-.35-.38-.24-.56.19-.29.21-.4.12-.49-.05-.05-.07-.14-.04-.19.03-.05.03-.16.01-.25-.02-.1,0-.23.09-.35.12-.19.12-.2-.06-.26-.1-.04-.17-.09-.16-.11.01-.03.07-.02.12,0,.06.03.08.02.07-.02-.04-.07-.02-.16.07-.42.03-.08.06-.22.06-.29,0-.08.02-.22.04-.33.02-.12-.01-.21-.09-.25-.1-.05-.1-.08,0-.17.06-.06.17-.18.25-.26.15-.16.13-.21-.13-.31-.07-.03-.07-.04.01-.05.06,0,.14-.09.19-.21.08-.18.07-.21-.08-.27-.16-.06-.18-.18-.03-.18.04,0,.1-.04.12-.09.05-.1-.07-.26-.16-.22-.04.02-.15.04-.25.04-.17.01-.19,0-.26-.21-.06-.16-.06-.24.01-.26.06-.03.08-.08.05-.18-.05-.16.14-.55.36-.73.07-.06.13-.14.12-.17,0-.03.01-.04.05-.02.04.02.05.06.04.09-.02.03.02.08.08.12.09.05.13.02.22-.14.12-.22.02-.35-.15-.2-.07.07-.36.07-.37,0-.02-.07.27-.22.37-.19.07.02.14,0,.14-.05,0-.04.07-.11.15-.14.07-.04.15-.1.18-.14.06-.1-.17-.21-.27-.13-.09.07-.25.01-.2-.08.02-.03.06-.04.09-.03.03.02.08-.02.12-.08.07-.13.07-.13-.19-.14-.28,0-.36-.06-.29-.19.03-.06.09-.1.12-.08.03.02.03-.04,0-.14-.06-.14-.05-.19.07-.3.19-.18.28-.15.36.12.04.12.1.24.14.27.04.02.07.08.06.13,0,.05.02.07.06.06.04-.01.05-.05.02-.09-.03-.03-.02-.14.03-.22.13-.24.1-.68-.06-.76-.17-.09-.18-.22-.02-.17.07.02.2-.01.3-.07.17-.09.19-.12.27-.48.05-.21.12-.41.17-.45.09-.08.26-.8.21-.89-.02-.04-.01-.13.02-.21.09-.22.09-.22,0-.31-.06-.07-.06-.12.02-.21.06-.07.09-.18.08-.26-.01-.07.02-.2.08-.29.06-.09.09-.22.08-.3-.02-.08-.02-.21,0-.3.02-.09.02-.19,0-.23-.02-.04.08-.27.26-.57.48-.82.55-.96.65-1.29.05-.17.19-.57.3-.89.11-.32.23-.69.25-.82.03-.13.09-.29.15-.35.05-.06.11-.19.12-.29.01-.1.07-.25.12-.34.05-.09.09-.21.08-.27-.01-.06.02-.15.07-.2.12-.11.42-1.01.42-1.24,0-.22.14-.52.29-.62.06-.04.18-.15.25-.25.08-.11.2-.18.28-.17.55.02.98-.17,1.06-.46.06-.24.3-.38.76-.45.23-.03.43-.08.44-.1.01-.02.08-.01.14.02.13.07.61-.02.71-.13.09-.1.26-.14.41-.1.1.03.12.08.07.22-.08.24-.18.32-.34.26-.1-.04-.15-.01-.19.1-.08.21-.04.33.09.22.13-.11.19-.12.68-.03.37.07.86,0,.9-.12.03-.1.36-.26.51-.25.21.01.73.12.84.18.05.03.15.03.23.02.09-.02.3.05.54.17.44.22.5.33.22.47-.15.07-.15.09-.04.27.06.11.17.23.25.27.07.04.21.2.3.35.09.15.22.3.29.34.09.05.11.13.08.28-.05.29.11.74.38,1.1.21.28.44.85.44,1.1,0,.07.06.22.14.34.08.12.14.28.13.36,0,.08.07.4.17.72.1.32.16.6.15.62-.01.02,0,.14.03.25.12.51.25,1.25.22,1.3-.03.05.05.64.09.77,0,.03.05.29.09.6.04.3.08.59.09.64,0,.05,0,.16-.01.24-.02.09.01.33.07.54.05.21.09.52.09.69,0,.16,0,.32.03.34.06.07.17.92.13,1-.02.04,0,.23.05.42.09.38.14.75.21,1.59.02.29.07.63.1.74.03.11.04.24.02.29-.08.14-.06.62.03.85.14.36.19,1.29.09,1.66-.03.1-.02.19,0,.21.03.02.05.1.04.19-.01.14,0,.41.06.97.05.56.06,1,.02,1.11-.05.13-.06.23-.11.98-.03.41-.09.7-.26,1.33-.05.17-.12.5-.17.73-.04.22-.11.46-.15.53-.04.07-.08.22-.09.34-.02.21-.49,1.65-.6,1.86-.03.06-.06.2-.07.33,0,.12-.07.41-.13.63-.2.7-.27.98-.28,1.13,0,.08-.07.29-.15.46-.08.18-.19.55-.23.82-.05.28-.17.93-.27,1.46-.1.53-.19,1.02-.2,1.1-.02.24-.11.72-.14.75-.02.02-.03.14-.03.26,0,.13-.03.29-.07.36-.04.07-.06.18-.04.26.04.18-.14,1.14-.25,1.34-.05.09-.1.34-.12.55-.01.21-.05.42-.07.46-.02.04-.03.11-.01.14.02.03,0,.16-.05.29-.24.63-.4,1.25-.45,1.78-.01.11-.07.37-.13.58-.06.2-.13.5-.14.65-.02.16-.06.32-.1.37-.04.05-.05.12-.03.15.02.03,0,.12-.04.2-.04.08-.08.24-.08.35,0,.12-.04.36-.09.55-.08.31-.11.36-.44.66-.3.27-.39.4-.58.81-.13.27-.29.74-.35,1.05-.07.3-.14.56-.16.56-.02,0-.04.11-.04.23,0,.16-.03.22-.1.24-.07.02-.1-.01-.12-.12ZM10.94,41.1c-.13.21-.24.23-.43.06-.14-.13-.11-.2.18-.35.14-.07.27-.09.35-.04.07.04.1.09.07.11-.03.02-.11.12-.18.23ZM13.26,41.14c-.05.08-.48.13-.6.07-.09-.05-.06-.09.14-.23.25-.16.57-.05.46.16ZM11.5,40.43s.06.08.04.13c-.07.12-.18.11-.16-.02.02-.15.03-.16.12-.11ZM15.74,40.41s.02.04-.04.06c-.06.02-.11.01-.12-.02-.02-.06.09-.09.16-.05ZM11.83,39.95c-.08-.13-.11-.14-.19-.1-.07.04-.08.03-.07-.04,0-.07,0-.07-.03-.03-.02.04-.09.04-.15.01-.14-.07,0-.35.39-.79.2-.22.28-.34.24-.38-.04-.04-.01-.08.07-.13.07-.04.14-.14.16-.22.02-.08,0-.19-.04-.25-.09-.13,0-.25.14-.17.07.04.08.03.05-.04-.06-.1.1-.25.21-.19.04.02.05.09.02.16s-.04.13,0,.14c.03.02.03.11,0,.2-.03.1-.05.21-.04.25,0,.04-.08.23-.18.41l-.18.34.3.17c.29.16.3.18.26.35-.05.22-.24.35-.59.42-.24.05-.28.04-.37-.1ZM8.5,40.02s-.06-.11-.04-.16c.04-.1.38-.28.4-.21.05.17-.24.47-.36.37ZM8.66,39.11c.05-.07.05-.15.02-.2-.09-.11-.02-.21.18-.26.09-.02.19-.08.22-.14.07-.13.3-.2.43-.12.06.03.12.2.15.38l.04.33-.25.16c-.38.24-.99.13-.79-.15ZM12.96,37.46c.06-.11.09-.24.07-.27-.06-.11.13-.18.21-.09.06.08.05.16-.08.4-.11.2-.16.24-.23.2-.05-.03-.04-.11.03-.25ZM15.59,37.77c.11.06.09.15-.1.39-.14.18-.2.21-.31.17-.11-.04-.12-.08-.04-.21.13-.21.37-.41.45-.36ZM13.38,36.83c-.07.02-.15.01-.17-.02-.05-.09,0-.14.24-.22.12-.04.24-.05.26,0,.05.09-.07.29-.14.25-.03-.02-.12-.02-.19,0ZM14.12,36.32c.05.12-.08.24-.19.18-.04-.02-.05-.09-.02-.15.08-.14.16-.16.21-.04ZM16.78,36.32s.04.08.02.11c-.02.03-.06.05-.1.04-.04,0-.05-.05-.02-.11.03-.05.07-.07.1-.04ZM14.78,34.09s-.09.05-.15.02c-.14-.08-.09-.17.18-.32.26-.14.38-.1.31.12-.04.12-.08.16-.17.13-.07-.02-.14,0-.16.05ZM10.17,36.38c-.05-.08-.14-.21-.21-.29-.06-.08-.11-.22-.1-.31.01-.14.05-.18.23-.24.12-.04.23-.09.24-.12.03-.06.21-.04.38.05.08.05.11.09.07.13-.04.03-.01.14.05.24.09.14.09.23.03.34-.24.4-.51.48-.69.19ZM10.35,34.49c-.09-.07-.09-.14,0-.4.07-.17.11-.35.1-.4-.02-.11.2-.07.28.06.05.07.19.19.57.45.1.07-.06.17-.26.17-.12,0-.3.05-.4.11-.13.07-.22.08-.3.02Z"/>
      <path class="cls-1" d="M15.7,28.99c.36-.08.43-.41.12-.58-.15-.08-.17-.07-.27.15-.06.13-.09.24-.06.26.02.01.02.06,0,.11-.06.11-.03.12.22.07Z"/>
      <path class="cls-1" d="M14.08,29.58c.1.06.17.13.15.17-.03.06.4.27.5.24.11-.03.06-.22-.07-.34-.11-.1-.14-.17-.1-.31.07-.25-.08-.37-.35-.3-.12.03-.23.1-.26.14-.02.04-.17.12-.32.17-.54.18-.89.34-1.04.48-.13.12-.24.32-.22.4.03.1.6-.13,1.02-.42.47-.32.5-.33.68-.23Z"/>
      <path class="cls-1" d="M16.44,29.66c-.07.11-.18.21-.23.23-.05.02-.1.07-.11.12,0,.05-.02.12-.04.14-.06.11.2.07.48-.07.37-.19.66-.53.55-.66-.12-.14-.48,0-.64.24Z"/>
      <path class="cls-1" d="M14.11,33.05s-.03.11,0,.15c.02.04.07.01.1-.05.03-.06.04-.13,0-.15-.03-.02-.08,0-.1.05Z"/>
      <path class="cls-1" d="M6.29,28.13c.07-.13.07-.15-.04-.13-.07.01-.13.03-.13.04,0,0,.01.07.04.13.04.1.06.09.13-.04Z"/>
      <path class="cls-1" d="M6.51,28.47c.05-.08-.04-.17-.14-.14-.08.02-.06.14.02.18.04.02.09,0,.12-.05Z"/>
    </g>
  </g>
</svg>