<svg xmlns="http://www.w3.org/2000/svg" xmlns:xlink="http://www.w3.org/1999/xlink" viewBox="0 0 307 39" width="307" height="39" preserveAspectRatio="xMidYMid meet" style="width: 100%;height: 100%;transform: translate3d(0px, 0px, 0px);content-visibility: visible;"><defs><clipPath id="__lottie_element_1842"><rect width="307" height="39" x="0" y="0"></rect></clipPath><clipPath id="__lottie_element_1847"><path d="M0,0 L48,0 L48,39 L0,39z"></path></clipPath><g id="__lottie_element_1853"><g transform="matrix(1,0,0,1,153.9530029296875,19.965999603271484)" opacity="1" style="display: block;"><g opacity="1" transform="matrix(1,0,0,1,-0.953000009059906,-0.9660000205039978)"><path fill="rgb(219,175,208)" fill-opacity="1" d=" M6.547500133514404,-8.784000396728516 C6.547500133514404,-8.784000396728516 6.547500133514404,8.784000396728516 6.547500133514404,8.784000396728516 C6.547500133514404,8.784000396728516 -6.547500133514404,8.784000396728516 -6.547500133514404,8.784000396728516 C-6.547500133514404,8.784000396728516 -6.547500133514404,-8.784000396728516 -6.547500133514404,-8.784000396728516 C-6.547500133514404,-8.784000396728516 6.547500133514404,-8.784000396728516 6.547500133514404,-8.784000396728516z"></path><path stroke-linecap="butt" stroke-linejoin="miter" fill-opacity="0" stroke-miterlimit="4" stroke="rgb(12,22,28)" stroke-opacity="1" stroke-width="0" d=" M6.547500133514404,-8.784000396728516 C6.547500133514404,-8.784000396728516 6.547500133514404,8.784000396728516 6.547500133514404,8.784000396728516 C6.547500133514404,8.784000396728516 -6.547500133514404,8.784000396728516 -6.547500133514404,8.784000396728516 C-6.547500133514404,8.784000396728516 -6.547500133514404,-8.784000396728516 -6.547500133514404,-8.784000396728516 C-6.547500133514404,-8.784000396728516 6.547500133514404,-8.784000396728516 6.547500133514404,-8.784000396728516z"></path></g></g></g><mask id="__lottie_element_1853_1" mask-type="alpha"><use xlink:href="#__lottie_element_1853"></use></mask></defs><g clip-path="url(#__lottie_element_1842)"><g style="display: block;" transform="matrix(1,0,0,1,153.31399536132812,18.597999572753906)" opacity="1"><g opacity="1" transform="matrix(1,0,0,1,0,0)"><path fill="rgb(223,212,191)" fill-opacity="1" d=" M153.31399536132812,-0.3240000009536743 C153.31399536132812,-0.3240000009536743 153.31399536132812,0.3240000009536743 153.31399536132812,0.3240000009536743 C153.31399536132812,0.3240000009536743 -153.31399536132812,0.3240000009536743 -153.31399536132812,0.3240000009536743 C-153.31399536132812,0.3240000009536743 -153.31399536132812,-0.3240000009536743 -153.31399536132812,-0.3240000009536743 C-153.31399536132812,-0.3240000009536743 153.31399536132812,-0.3240000009536743 153.31399536132812,-0.3240000009536743z"></path></g></g><g clip-path="url(#__lottie_element_1847)" transform="matrix(1,0,0,1,129.16799926757812,0.009000778198242188)" opacity="1" style="display: block;"><g transform="matrix(1,0,0,1,9.04699993133545,18.601999282836914)" opacity="1" style="display: block;"><g opacity="1" transform="matrix(1,0,0,1,0,0)"><path fill="rgb(223,212,191)" fill-opacity="1" d=" M0.2409999966621399,-8.833000183105469 C0.2070000022649765,-9.119000434875488 -0.2070000022649765,-9.119000434875488 -0.2409999966621399,-8.833000183105469 C-0.2409999966621399,-8.833000183105469 -0.5260000228881836,-6.434000015258789 -0.5260000228881836,-6.434000015258789 C-0.8939999938011169,-3.3359999656677246 -3.3359999656677246,-0.8939999938011169 -6.434000015258789,-0.5260000228881836 C-6.434000015258789,-0.5260000228881836 -8.833000183105469,-0.2409999966621399 -8.833000183105469,-0.2409999966621399 C-9.119000434875488,-0.2070000022649765 -9.119000434875488,0.2070000022649765 -8.833000183105469,0.2409999966621399 C-8.833000183105469,0.2409999966621399 -6.434000015258789,0.5260000228881836 -6.434000015258789,0.5260000228881836 C-3.3359999656677246,0.8939999938011169 -0.8939999938011169,3.3359999656677246 -0.5260000228881836,6.434000015258789 C-0.5260000228881836,6.434000015258789 -0.2409999966621399,8.833000183105469 -0.2409999966621399,8.833000183105469 C-0.2070000022649765,9.119000434875488 0.2070000022649765,9.119000434875488 0.2409999966621399,8.833000183105469 C0.2409999966621399,8.833000183105469 0.5260000228881836,6.434000015258789 0.5260000228881836,6.434000015258789 C0.8939999938011169,3.3359999656677246 3.3359999656677246,0.8939999938011169 6.434000015258789,0.5260000228881836 C6.434000015258789,0.5260000228881836 8.833000183105469,0.2409999966621399 8.833000183105469,0.2409999966621399 C9.119000434875488,0.2070000022649765 9.119000434875488,-0.2070000022649765 8.833000183105469,-0.2409999966621399 C8.833000183105469,-0.2409999966621399 6.434000015258789,-0.5260000228881836 6.434000015258789,-0.5260000228881836 C3.3359999656677246,-0.8939999938011169 0.8939999938011169,-3.3359999656677246 0.5260000228881836,-6.434000015258789 C0.5260000228881836,-6.434000015258789 0.2409999966621399,-8.833000183105469 0.2409999966621399,-8.833000183105469z"></path></g></g><g transform="matrix(1,0,0,1,39.02399826049805,18.601999282836914)" opacity="1" style="display: block;"><g opacity="1" transform="matrix(1,0,0,1,0,0)"><path fill="rgb(223,212,191)" fill-opacity="1" d=" M0.2409999966621399,-8.833000183105469 C0.2070000022649765,-9.119000434875488 -0.2070000022649765,-9.119000434875488 -0.2409999966621399,-8.833000183105469 C-0.2409999966621399,-8.833000183105469 -0.5260000228881836,-6.434000015258789 -0.5260000228881836,-6.434000015258789 C-0.8939999938011169,-3.3359999656677246 -3.3359999656677246,-0.8939999938011169 -6.434000015258789,-0.5260000228881836 C-6.434000015258789,-0.5260000228881836 -8.833000183105469,-0.2409999966621399 -8.833000183105469,-0.2409999966621399 C-9.119000434875488,-0.2070000022649765 -9.119000434875488,0.2070000022649765 -8.833000183105469,0.2409999966621399 C-8.833000183105469,0.2409999966621399 -6.434000015258789,0.5260000228881836 -6.434000015258789,0.5260000228881836 C-3.3359999656677246,0.8939999938011169 -0.8939999938011169,3.3359999656677246 -0.5260000228881836,6.434000015258789 C-0.5260000228881836,6.434000015258789 -0.2409999966621399,8.833000183105469 -0.2409999966621399,8.833000183105469 C-0.2070000022649765,9.119000434875488 0.2070000022649765,9.119000434875488 0.2409999966621399,8.833000183105469 C0.2409999966621399,8.833000183105469 0.5260000228881836,6.434000015258789 0.5260000228881836,6.434000015258789 C0.8939999938011169,3.3359999656677246 3.3359999656677246,0.8939999938011169 6.434000015258789,0.5260000228881836 C6.434000015258789,0.5260000228881836 8.833000183105469,0.2409999966621399 8.833000183105469,0.2409999966621399 C9.119000434875488,0.2070000022649765 9.119000434875488,-0.2070000022649765 8.833000183105469,-0.2409999966621399 C8.833000183105469,-0.2409999966621399 6.434000015258789,-0.5260000228881836 6.434000015258789,-0.5260000228881836 C3.3359999656677246,-0.8939999938011169 0.8939999938011169,-3.3359999656677246 0.5260000228881836,-6.434000015258789 C0.5260000228881836,-6.434000015258789 0.2409999966621399,-8.833000183105469 0.2409999966621399,-8.833000183105469z"></path></g></g><g transform="matrix(-1,0,0,-1,24.13599967956543,19.509000778198242)" opacity="1" style="display: block;"><g opacity="1" transform="matrix(1,0,0,1,0,0)"><path fill="rgb(223,212,191)" fill-opacity="1" d=" M-11.583999633789062,14.197999954223633 C-9.696000099182129,17.39299964904785 -5.125999927520752,19.509000778198242 -0.0010000000474974513,19.509000778198242 C-0.0010000000474974513,19.509000778198242 -0.0010000000474974513,19.509000778198242 -0.0010000000474974513,19.509000778198242 C5.124000072479248,19.509000778198242 9.694999694824219,17.393999099731445 11.583000183105469,14.199000358581543 C11.583000183105469,14.199000358581543 15.288000106811523,14.199000358581543 15.288000106811523,14.199000358581543 C15.288000106811523,14.199000358581543 15.288000106811523,-13.439000129699707 15.288000106811523,-13.439000129699707 C15.288000106811523,-13.439000129699707 11.972000122070312,-13.439000129699707 11.972000122070312,-13.439000129699707 C10.42300033569336,-17.038000106811523 5.605000019073486,-19.509000778198242 0,-19.509000778198242 C-5.605000019073486,-19.509000778198242 -10.42300033569336,-17.038999557495117 -11.972999572753906,-13.4399995803833 C-11.972999572753906,-13.4399995803833 -15.288000106811523,-13.4399995803833 -15.288000106811523,-13.4399995803833 C-15.288000106811523,-13.4399995803833 -15.288000106811523,14.197999954223633 -15.288000106811523,14.197999954223633 C-15.288000106811523,14.197999954223633 -11.583999633789062,14.197999954223633 -11.583999633789062,14.197999954223633z"></path></g></g></g><g mask="url(#__lottie_element_1853_1)" style="display: block;"><g transform="matrix(1,0,0,1,153,19)" opacity="1"><g opacity="1" transform="matrix(1,0,0,1,0,0)"><path fill="rgb(24,24,24)" fill-opacity="1" d=" M1.8980000019073486,-6.993000030517578 C1.0729999542236328,-6.993000030517578 0.722000002861023,-6.663000106811523 0.722000002861023,-6.126999855041504 C0.722000002861023,-6.126999855041504 0.722000002861023,6.126999855041504 0.722000002861023,6.126999855041504 C0.722000002861023,6.663000106811523 1.0729999542236328,6.993000030517578 1.8980000019073486,6.993000030517578 C1.8980000019073486,6.993000030517578 2.1659998893737793,6.993000030517578 2.1659998893737793,6.993000030517578 C2.1659998893737793,6.993000030517578 2.1659998893737793,7.21999979019165 2.1659998893737793,7.21999979019165 C2.1659998893737793,7.21999979019165 -2.1659998893737793,7.21999979019165 -2.1659998893737793,7.21999979019165 C-2.1659998893737793,7.21999979019165 -2.1659998893737793,6.993000030517578 -2.1659998893737793,6.993000030517578 C-2.1659998893737793,6.993000030517578 -1.8980000019073486,6.993000030517578 -1.8980000019073486,6.993000030517578 C-1.0729999542236328,6.993000030517578 -0.722000002861023,6.663000106811523 -0.722000002861023,6.126999855041504 C-0.722000002861023,6.126999855041504 -0.722000002861023,-6.126999855041504 -0.722000002861023,-6.126999855041504 C-0.722000002861023,-6.663000106811523 -1.0729999542236328,-6.993000030517578 -1.8980000019073486,-6.993000030517578 C-1.8980000019073486,-6.993000030517578 -2.1659998893737793,-6.993000030517578 -2.1659998893737793,-6.993000030517578 C-2.1659998893737793,-6.993000030517578 -2.1659998893737793,-7.21999979019165 -2.1659998893737793,-7.21999979019165 C-2.1659998893737793,-7.21999979019165 2.1659998893737793,-7.21999979019165 2.1659998893737793,-7.21999979019165 C2.1659998893737793,-7.21999979019165 2.1659998893737793,-6.993000030517578 2.1659998893737793,-6.993000030517578 C2.1659998893737793,-6.993000030517578 1.8980000019073486,-6.993000030517578 1.8980000019073486,-6.993000030517578z"></path></g></g></g></g></svg>