
<svg id="vintage-divider" data-name="Capa 2" xmlns="http://www.w3.org/2000/svg" viewBox="0 0 226.64 50.02">
  <defs>
    <style>
      .cls-1{fill:#302d7d}
    </style>
  </defs>
  <g id="Capa_1-2" data-name="Capa 1">
    <path class="cls-1" d="M89.73 25.92c0-.3-.02-.61-.02-.91s.02-.61.03-.91l-32.35.41H0v1h57.39l32.34.41ZM169.24 24.51l-32.35-.41c0 .3.03.6.03.91s0 .61-.02.91l32.34-.41h57.39v-1h-57.4ZM135.93 22.54C135.12 10.36 128.6.7 128.53.6l-.41-.6-.41.6c-.07.1-1.61 2.36-3.29 6.1-1.68-3.74-3.22-6-3.29-6.1l-.41-.6-.41.6c-.07.1-1.61 2.36-3.29 6.1-1.68-3.74-3.22-6-3.29-6.1l-.41-.6-.41.6c-.07.1-1.61 2.36-3.29 6.1-1.68-3.74-3.22-6-3.29-6.1l-.41-.6-.41.6c-.07.1-1.61 2.36-3.29 6.1-1.6-3.57-3.06-5.77-3.25-6.05a.52.52 0 0 1-.03-.05l-.41-.6-.41.6c-.07.1-6.59 9.75-7.4 21.94-.05.81-.08 1.64-.08 2.47 0 13.32 7.41 24.3 7.49 24.41l.41.6.41-.6s.02-.04.05-.08c.25-.37 1.67-2.55 3.23-6.02 1.6 3.57 3.06 5.77 3.25 6.05.02.03.03.05.03.05l.41.6.41-.6s.01-.02.03-.05c.19-.28 1.65-2.48 3.25-6.05 1.6 3.57 3.06 5.77 3.25 6.05.02.03.03.05.03.05l.41.6.41-.6s.01-.02.03-.05c.19-.28 1.65-2.48 3.25-6.05 1.6 3.57 3.06 5.77 3.25 6.05.02.03.03.05.03.05l.41.6.41-.6s.01-.02.03-.05c.19-.28 1.65-2.48 3.25-6.05 1.6 3.57 3.06 5.77 3.25 6.05.02.03.03.05.03.05l.41.6.41-.6c.08-.11 7.49-11.08 7.49-24.41 0-.83-.03-1.66-.08-2.47Zm-30.01-3.65c-.66-4.16-1.9-7.9-3.16-10.89 1.27-2.97 2.53-5.16 3.16-6.18.63 1.02 1.89 3.21 3.16 6.18-1.25 3-2.49 6.74-3.16 10.9Zm3.7-9.57c1.66 4.21 3.2 9.7 3.2 15.69s-1.54 11.48-3.2 15.69c-1.66-4.21-3.2-9.7-3.2-15.69s1.54-11.48 3.2-15.69Zm.54-1.33c1.27-2.97 2.53-5.16 3.16-6.18.63 1.02 1.88 3.21 3.16 6.18-1.25 3-2.49 6.74-3.16 10.89-.67-4.16-1.9-7.9-3.16-10.9Zm6.86 1.33c1.66 4.21 3.2 9.7 3.2 15.69s-1.54 11.48-3.2 15.69c-1.66-4.21-3.2-9.7-3.2-15.69s1.54-11.48 3.2-15.69Zm.54-1.33c1.27-2.97 2.53-5.16 3.16-6.18.63 1.02 1.89 3.21 3.16 6.18-1.25 3-2.49 6.74-3.16 10.9-.66-4.16-1.9-7.9-3.16-10.89Zm-12.14 17.02c0 5.99-1.54 11.48-3.2 15.69-1.66-4.21-3.2-9.7-3.2-15.69s1.54-11.48 3.2-15.69c1.66 4.21 3.2 9.7 3.2 15.69Zm.5 6.12c.67 4.16 1.9 7.9 3.16 10.9-1.27 2.97-2.53 5.16-3.16 6.18-.63-1.02-1.88-3.21-3.16-6.18 1.25-3 2.49-6.74 3.16-10.9Zm7.4 0c.66 4.16 1.9 7.9 3.16 10.9-1.27 2.97-2.53 5.16-3.16 6.18-.63-1.02-1.89-3.21-3.16-6.18 1.25-3 2.49-6.74 3.16-10.9Zm7.4 0c.67 4.16 1.9 7.9 3.16 10.9-1.27 2.97-2.53 5.16-3.16 6.18-.63-1.02-1.88-3.21-3.16-6.18 1.25-3 2.49-6.74 3.16-10.9Zm.5-6.12c0-5.99 1.54-11.48 3.2-15.69 1.66 4.21 3.2 9.7 3.2 15.69s-1.54 11.48-3.2 15.69c-1.66-4.21-3.2-9.7-3.2-15.69ZM91.86 20.9s.01-.07.01-.1c.9-7.87 4.07-14.44 5.84-17.61.32-.57.6-1.04.81-1.38.63 1.02 1.88 3.21 3.16 6.18-1.84 4.41-3.66 10.42-3.66 17.01s1.81 12.6 3.66 17.01c-1.27 2.97-2.53 5.16-3.16 6.18-1.34-2.17-5.51-9.57-6.62-18.77-.01-.11-.03-.21-.04-.32-.03-.27-.05-.55-.07-.83-.1-1.07-.16-2.16-.16-3.28 0-1.4.08-2.77.23-4.11Zm42.77 9.3c-.04.29-.07.59-.12.89-.04.26-.1.51-.14.77-.07.38-.13.77-.21 1.14-.13.6-.27 1.19-.41 1.78 0 .02 0 .04-.02.06-.1.41-.22.8-.33 1.19-.05.19-.1.38-.16.57-1.52 5.13-3.64 9.1-4.77 11.01 0 .01-.02.03-.02.04-.04.06-.07.11-.1.17-.08.13-.16.27-.23.38-.63-1.02-1.89-3.21-3.16-6.18 1.84-4.41 3.66-10.42 3.66-17.01s-1.81-12.6-3.66-17.01c1.27-2.97 2.53-5.16 3.16-6.18 1.54 2.51 6.9 12.01 6.9 23.19 0 1.78-.15 3.52-.38 5.19Z"/>
  </g>
</svg>

